# xmcd CD database file
# Copyright (C) 1993-1998 Ti Kan
#
# Track frame offsets:
#  182
#  17807
#  32580
#  53817
#  76020
#  96122
#  121470
#  143165
#  165630
#  187285
#
# Disc length: 2758 seconds
#
# Revision: 1
# Processed by: cddbd v1.4b41PL1 Copyright (c) Steve Scherf et al.
# Submitted via: CDWizzard Release:4.35
#
DISCID=7e0ac40a
DTITLE=J.C. and The Outlaw Band - Can't Say I Do
DYEAR=1900
DGENRE=
TTITLE0=Three Little Words
TTITLE1=Hard Look
TTITLE2=Baby Be Gentle With Me
TTITLE3=16 More Demands
TTITLE4=You Belong In My Arms
TTITLE5=Grandpa's Song
TTITLE6=Sticky Situation
TTITLE7=Son of a Poor Man
TTITLE8=Don't Say Goodbye
TTITLE9=You Take The House (I'll Take the Whiskey)
EXTD=
EXTT0=
EXTT1=
EXTT2=
EXTT3=
EXTT4=
EXTT5=
EXTT6=
EXTT7=
EXTT8=
EXTT9=
PLAYORDER=
